# xmcd
#
# Track frame offsets: 
#        182
#        8390
#        22687
#        33750
#        44827
#        57862
#        67505
#        80587
#        90750
#        102492
#        110932
#        122565
#        143307
#        156065
#
# Disc length: 2219 seconds
#
# Revision: 2
# Processed by: cddbd v1.5.1PL2 Copyright (c) Steve Scherf et al.
# Submitted via: ExactAudioCopy v0.95b3
#
DISCID=9808a90e
DTITLE=Bob Wills and His Texas Playboys - The Tiffany Transcriptions, Vo
DTITLE=l. 1
DYEAR=1989
DGENRE=Western Swing
TTITLE0=Nancy Jane [1946]
TTITLE1=Mission to Moscow [1947]
TTITLE2=Dinah [1946]
TTITLE3=Lone Star Rag [1947]
TTITLE4=Cotton Patch Blues [1947]
TTITLE5=Sweet Jennie Lee [1946]
TTITLE6=I Hear You Talkin' [1946]
TTITLE7=The Girl I Left Behind Me [1946]
TTITLE8=Straighten Up and Fly Right [1947]
TTITLE9=Little Betty Brown [1946]
TTITLE10=Nobody's Sweetheart Now [1946]
TTITLE11=Blackout Blues [1947]
TTITLE12=What's the Matter with the Mill [1946]
TTITLE13=Jumpin' at the Woodside [1947]
EXTD=CD: Rhino Records R2 71469 Mono (1989), UPC 081227146924, ISBN 1-
EXTD=56826-218-3.
EXTT0=
EXTT1=
EXTT2=
EXTT3=
EXTT4=
EXTT5=
EXTT6=
EXTT7=
EXTT8=
EXTT9=
EXTT10=
EXTT11=
EXTT12=
EXTT13=
PLAYORDER=
